<?xml version="1.0" encoding="UTF-8"?>
<!DOCTYPE svg PUBLIC "-//W3C//DTD SVG 1.1//EN" "http://www.w3.org/Graphics/SVG/1.1/DTD/svg11.dtd">
<!-- Creator: CorelDRAW X7 -->
<svg xmlns="http://www.w3.org/2000/svg" xml:space="preserve" width="1.66666in" height="1.66666in" version="1.1" style="shape-rendering:geometricPrecision; text-rendering:geometricPrecision; image-rendering:optimizeQuality; fill-rule:evenodd; clip-rule:evenodd"
viewBox="0 0 1667 1667"
 xmlns:xlink="http://www.w3.org/1999/xlink">
 <defs>
  <style type="text/css">
   <![CDATA[
    .fil0 {fill:#505466}
   ]]>
  </style>
 </defs>
 <g id="Layer_x0020_1">
  <metadata id="CorelCorpID_0Corel-Layer"/>
  <circle class="fil0" cx="158" cy="155" r="12"/>
  <circle class="fil0" cx="158" cy="291" r="12"/>
  <circle class="fil0" cx="158" cy="427" r="12"/>
  <circle class="fil0" cx="158" cy="564" r="12"/>
  <circle class="fil0" cx="158" cy="700" r="12"/>
  <circle class="fil0" cx="158" cy="836" r="12"/>
  <circle class="fil0" cx="158" cy="973" r="12"/>
  <circle class="fil0" cx="158" cy="1109" r="12"/>
  <circle class="fil0" cx="158" cy="1245" r="12"/>
  <circle class="fil0" cx="158" cy="1382" r="12"/>
  <circle class="fil0" cx="158" cy="1518" r="12"/>
  <circle class="fil0" cx="294" cy="155" r="12"/>
  <circle class="fil0" cx="294" cy="291" r="12"/>
  <circle class="fil0" cx="294" cy="427" r="12"/>
  <circle class="fil0" cx="294" cy="564" r="12"/>
  <circle class="fil0" cx="294" cy="700" r="12"/>
  <circle class="fil0" cx="294" cy="836" r="12"/>
  <circle class="fil0" cx="294" cy="973" r="12"/>
  <circle class="fil0" cx="294" cy="1109" r="12"/>
  <circle class="fil0" cx="294" cy="1245" r="12"/>
  <circle class="fil0" cx="294" cy="1382" r="12"/>
  <circle class="fil0" cx="294" cy="1518" r="12"/>
  <circle class="fil0" cx="430" cy="155" r="12"/>
  <circle class="fil0" cx="430" cy="291" r="12"/>
  <circle class="fil0" cx="430" cy="427" r="12"/>
  <circle class="fil0" cx="430" cy="564" r="12"/>
  <circle class="fil0" cx="430" cy="700" r="12"/>
  <circle class="fil0" cx="430" cy="836" r="12"/>
  <circle class="fil0" cx="430" cy="973" r="12"/>
  <circle class="fil0" cx="430" cy="1109" r="12"/>
  <circle class="fil0" cx="430" cy="1245" r="12"/>
  <circle class="fil0" cx="430" cy="1382" r="12"/>
  <circle class="fil0" cx="430" cy="1518" r="12"/>
  <circle class="fil0" cx="566" cy="155" r="12"/>
  <circle class="fil0" cx="566" cy="291" r="12"/>
  <circle class="fil0" cx="566" cy="427" r="12"/>
  <circle class="fil0" cx="566" cy="564" r="12"/>
  <circle class="fil0" cx="566" cy="700" r="12"/>
  <circle class="fil0" cx="566" cy="836" r="12"/>
  <circle class="fil0" cx="566" cy="973" r="12"/>
  <circle class="fil0" cx="566" cy="1109" r="12"/>
  <circle class="fil0" cx="566" cy="1245" r="12"/>
  <circle class="fil0" cx="566" cy="1382" r="12"/>
  <circle class="fil0" cx="566" cy="1518" r="12"/>
  <circle class="fil0" cx="703" cy="155" r="12"/>
  <circle class="fil0" cx="703" cy="291" r="12"/>
  <circle class="fil0" cx="703" cy="427" r="12"/>
  <circle class="fil0" cx="703" cy="564" r="12"/>
  <circle class="fil0" cx="703" cy="700" r="12"/>
  <circle class="fil0" cx="703" cy="836" r="12"/>
  <circle class="fil0" cx="703" cy="973" r="12"/>
  <circle class="fil0" cx="703" cy="1109" r="12"/>
  <circle class="fil0" cx="703" cy="1245" r="12"/>
  <circle class="fil0" cx="703" cy="1382" r="12"/>
  <circle class="fil0" cx="703" cy="1518" r="12"/>
  <circle class="fil0" cx="839" cy="155" r="12"/>
  <circle class="fil0" cx="839" cy="291" r="12"/>
  <circle class="fil0" cx="839" cy="427" r="12"/>
  <circle class="fil0" cx="839" cy="564" r="12"/>
  <circle class="fil0" cx="839" cy="700" r="12"/>
  <circle class="fil0" cx="839" cy="836" r="12"/>
  <circle class="fil0" cx="839" cy="973" r="12"/>
  <circle class="fil0" cx="839" cy="1109" r="12"/>
  <circle class="fil0" cx="839" cy="1245" r="12"/>
  <circle class="fil0" cx="839" cy="1382" r="12"/>
  <circle class="fil0" cx="839" cy="1518" r="12"/>
  <circle class="fil0" cx="975" cy="155" r="12"/>
  <circle class="fil0" cx="975" cy="291" r="12"/>
  <circle class="fil0" cx="975" cy="427" r="12"/>
  <circle class="fil0" cx="975" cy="564" r="12"/>
  <circle class="fil0" cx="975" cy="700" r="12"/>
  <circle class="fil0" cx="975" cy="836" r="12"/>
  <circle class="fil0" cx="975" cy="973" r="12"/>
  <circle class="fil0" cx="975" cy="1109" r="12"/>
  <circle class="fil0" cx="975" cy="1245" r="12"/>
  <circle class="fil0" cx="975" cy="1382" r="12"/>
  <circle class="fil0" cx="975" cy="1518" r="12"/>
  <circle class="fil0" cx="1112" cy="155" r="12"/>
  <circle class="fil0" cx="1112" cy="291" r="12"/>
  <circle class="fil0" cx="1112" cy="427" r="12"/>
  <circle class="fil0" cx="1112" cy="564" r="12"/>
  <circle class="fil0" cx="1112" cy="700" r="12"/>
  <circle class="fil0" cx="1112" cy="836" r="12"/>
  <circle class="fil0" cx="1112" cy="973" r="12"/>
  <circle class="fil0" cx="1112" cy="1109" r="12"/>
  <circle class="fil0" cx="1112" cy="1245" r="12"/>
  <circle class="fil0" cx="1112" cy="1382" r="12"/>
  <circle class="fil0" cx="1112" cy="1518" r="12"/>
  <circle class="fil0" cx="1248" cy="155" r="12"/>
  <circle class="fil0" cx="1248" cy="291" r="12"/>
  <circle class="fil0" cx="1248" cy="427" r="12"/>
  <circle class="fil0" cx="1248" cy="564" r="12"/>
  <circle class="fil0" cx="1248" cy="700" r="12"/>
  <circle class="fil0" cx="1248" cy="836" r="12"/>
  <circle class="fil0" cx="1248" cy="973" r="12"/>
  <circle class="fil0" cx="1248" cy="1109" r="12"/>
  <circle class="fil0" cx="1248" cy="1245" r="12"/>
  <circle class="fil0" cx="1248" cy="1382" r="12"/>
  <circle class="fil0" cx="1248" cy="1518" r="12"/>
  <circle class="fil0" cx="1384" cy="155" r="12"/>
  <circle class="fil0" cx="1384" cy="291" r="12"/>
  <circle class="fil0" cx="1384" cy="427" r="12"/>
  <circle class="fil0" cx="1384" cy="564" r="12"/>
  <circle class="fil0" cx="1384" cy="700" r="12"/>
  <circle class="fil0" cx="1384" cy="836" r="12"/>
  <circle class="fil0" cx="1384" cy="973" r="12"/>
  <circle class="fil0" cx="1384" cy="1109" r="12"/>
  <circle class="fil0" cx="1384" cy="1245" r="12"/>
  <circle class="fil0" cx="1384" cy="1382" r="12"/>
  <circle class="fil0" cx="1384" cy="1518" r="12"/>
  <circle class="fil0" cx="1521" cy="155" r="12"/>
  <circle class="fil0" cx="1521" cy="291" r="12"/>
  <circle class="fil0" cx="1521" cy="427" r="12"/>
  <circle class="fil0" cx="1521" cy="564" r="12"/>
  <circle class="fil0" cx="1521" cy="700" r="12"/>
  <circle class="fil0" cx="1521" cy="836" r="12"/>
  <circle class="fil0" cx="1521" cy="973" r="12"/>
  <circle class="fil0" cx="1521" cy="1109" r="12"/>
  <circle class="fil0" cx="1521" cy="1245" r="12"/>
  <circle class="fil0" cx="1521" cy="1382" r="12"/>
  <circle class="fil0" cx="1521" cy="1518" r="12"/>
 </g>
</svg>
